<?xml version="1.0" encoding="UTF-8"?>
<?xml-stylesheet href="https://cdnjs.cloudflare.com/ajax/libs/font-awesome/6.7.2/css/all.min.css" type="text/css"?>
<svg aria-roledescription="er" role="graphics-document document" viewBox="-3.167234420776367 0 525.6339111328125 408" style="max-width: 100%;" xmlns="http://www.w3.org/2000/svg" width="100%" id="graph-div" height="100%" xmlns:xlink="http://www.w3.org/1999/xlink"><style>#graph-div{font-family:"trebuchet ms",verdana,arial,sans-serif;font-size:16px;fill:#ccc;}#graph-div .error-icon{fill:#a44141;}#graph-div .error-text{fill:#ddd;stroke:#ddd;}#graph-div .edge-thickness-normal{stroke-width:1px;}#graph-div .edge-thickness-thick{stroke-width:3.5px;}#graph-div .edge-pattern-solid{stroke-dasharray:0;}#graph-div .edge-thickness-invisible{stroke-width:0;fill:none;}#graph-div .edge-pattern-dashed{stroke-dasharray:3;}#graph-div .edge-pattern-dotted{stroke-dasharray:2;}#graph-div .marker{fill:lightgrey;stroke:lightgrey;}#graph-div .marker.cross{stroke:lightgrey;}#graph-div svg{font-family:"trebuchet ms",verdana,arial,sans-serif;font-size:16px;}#graph-div p{margin:0;}#graph-div .entityBox{fill:#1f2020;stroke:#ccc;}#graph-div .attributeBoxOdd{fill:hsl(0, 0%, 32%);stroke:#ccc;}#graph-div .attributeBoxEven{fill:hsl(0, 0%, 22%);stroke:#ccc;}#graph-div .relationshipLabelBox{fill:hsl(20, 1.5873015873%, 12.3529411765%);opacity:0.7;background-color:hsl(20, 1.5873015873%, 12.3529411765%);}#graph-div .relationshipLabelBox rect{opacity:0.5;}#graph-div .relationshipLine{stroke:lightgrey;}#graph-div .entityTitleText{text-anchor:middle;font-size:18px;fill:#ccc;}#graph-div #MD_PARENT_START{fill:#f5f5f5!important;stroke:lightgrey!important;stroke-width:1;}#graph-div #MD_PARENT_END{fill:#f5f5f5!important;stroke:lightgrey!important;stroke-width:1;}#graph-div :root{--mermaid-font-family:"trebuchet ms",verdana,arial,sans-serif;}</style><g></g><defs><marker orient="auto" markerHeight="240" markerWidth="190" refY="7" refX="0" id="MD_PARENT_START"><path d="M 18,7 L9,13 L1,7 L9,1 Z"></path></marker></defs><defs><marker orient="auto" markerHeight="28" markerWidth="20" refY="7" refX="19" id="MD_PARENT_END"><path d="M 18,7 L9,13 L1,7 L9,1 Z"></path></marker></defs><defs><marker orient="auto" markerHeight="18" markerWidth="18" refY="9" refX="0" id="ONLY_ONE_START"><path d="M9,0 L9,18 M15,0 L15,18" fill="none" stroke="gray"></path></marker></defs><defs><marker orient="auto" markerHeight="18" markerWidth="18" refY="9" refX="18" id="ONLY_ONE_END"><path d="M3,0 L3,18 M9,0 L9,18" fill="none" stroke="gray"></path></marker></defs><defs><marker orient="auto" markerHeight="18" markerWidth="30" refY="9" refX="0" id="ZERO_OR_ONE_START"><circle r="6" cy="9" cx="21" fill="white" stroke="gray"></circle><path d="M9,0 L9,18" fill="none" stroke="gray"></path></marker></defs><defs><marker orient="auto" markerHeight="18" markerWidth="30" refY="9" refX="30" id="ZERO_OR_ONE_END"><circle r="6" cy="9" cx="9" fill="white" stroke="gray"></circle><path d="M21,0 L21,18" fill="none" stroke="gray"></path></marker></defs><defs><marker orient="auto" markerHeight="36" markerWidth="45" refY="18" refX="18" id="ONE_OR_MORE_START"><path d="M0,18 Q 18,0 36,18 Q 18,36 0,18 M42,9 L42,27" fill="none" stroke="gray"></path></marker></defs><defs><marker orient="auto" markerHeight="36" markerWidth="45" refY="18" refX="27" id="ONE_OR_MORE_END"><path d="M3,9 L3,27 M9,18 Q27,0 45,18 Q27,36 9,18" fill="none" stroke="gray"></path></marker></defs><defs><marker orient="auto" markerHeight="36" markerWidth="57" refY="18" refX="18" id="ZERO_OR_MORE_START"><circle r="6" cy="18" cx="48" fill="white" stroke="gray"></circle><path d="M0,18 Q18,0 36,18 Q18,36 0,18" fill="none" stroke="gray"></path></marker></defs><defs><marker orient="auto" markerHeight="36" markerWidth="57" refY="18" refX="39" id="ZERO_OR_MORE_END"><circle r="6" cy="18" cx="9" fill="white" stroke="gray"></circle><path d="M21,18 Q39,0 57,18 Q39,36 21,18" fill="none" stroke="gray"></path></marker></defs><path marker-start="url(#ONLY_ONE_START)" marker-end="url(#ZERO_OR_MORE_END)" style="stroke: gray; fill: none;" d="M86.433,219.725L80.847,228.104C75.261,236.483,64.089,253.242,63.463,269.954C62.837,286.667,72.758,303.333,77.718,311.667L82.679,320" class="er relationshipLine"></path><path marker-start="url(#ONLY_ONE_START)" marker-end="url(#ZERO_OR_MORE_END)" style="stroke: gray; fill: none;" d="M219.4,182.991L234.706,197.492C250.011,211.994,280.622,240.997,306.673,263.832C332.725,286.667,354.216,303.333,364.962,311.667L375.708,320" class="er relationshipLine"></path><path marker-start="url(#ONLY_ONE_START)" marker-end="url(#ZERO_OR_MORE_END)" style="stroke: gray; fill: none;" d="M333.665,154L313.26,173.333C292.854,192.667,252.044,231.333,220.893,259C189.742,286.667,168.251,303.333,157.505,311.667L146.759,320" class="er relationshipLine"></path><path marker-start="url(#ONLY_ONE_START)" marker-end="url(#ZERO_OR_MORE_END)" style="stroke: gray; fill: none;" d="M392.217,154L405.106,173.333C417.994,192.667,443.772,231.333,451.701,259C459.629,286.667,449.709,303.333,444.748,311.667L439.788,320" class="er relationshipLine"></path><g transform="translate(319.4000015258789,86 )" id="entity-User-818c511a-4a32-5484-ba70-875d765a9175"><rect height="68" width="100.30000019073486" y="0" x="0" class="er entityBox"></rect><text transform="translate(50.15000009536743,12)" style="dominant-baseline: middle; text-anchor: middle; font-size: 12px;" y="0" x="0" id="text-entity-User-818c511a-4a32-5484-ba70-875d765a9175" class="er entityLabel">User</text><rect height="22" width="44.20000076293945" y="24" x="0" class="er attributeBoxOdd"></rect><text transform="translate(5,35)" style="dominant-baseline: middle; font-size: 10.2px;" y="0" x="0" id="text-entity-User-818c511a-4a32-5484-ba70-875d765a9175-attr-1-type" class="er entityLabel">integer</text><rect height="22" width="31.53333282470703" y="24" x="44.20000076293945" class="er attributeBoxOdd"></rect><text transform="translate(49.20000076293945,35)" style="dominant-baseline: middle; font-size: 10.2px;" y="0" x="0" id="text-entity-User-818c511a-4a32-5484-ba70-875d765a9175-attr-1-name" class="er entityLabel">id</text><rect height="22" width="24.56666660308838" y="24" x="75.73333358764648" class="er attributeBoxOdd"></rect><text transform="translate(80.73333358764648,35)" style="dominant-baseline: middle; font-size: 10.2px;" y="0" x="0" id="text-entity-User-818c511a-4a32-5484-ba70-875d765a9175-attr-1-key" class="er entityLabel">PK</text><rect height="22" width="44.20000076293945" y="46" x="0" class="er attributeBoxEven"></rect><text transform="translate(5,57)" style="dominant-baseline: middle; font-size: 10.2px;" y="0" x="0" id="text-entity-User-818c511a-4a32-5484-ba70-875d765a9175-attr-2-type" class="er entityLabel">varchar</text><rect height="22" width="31.53333282470703" y="46" x="44.20000076293945" class="er attributeBoxEven"></rect><text transform="translate(49.20000076293945,57)" style="dominant-baseline: middle; font-size: 10.2px;" y="0" x="0" id="text-entity-User-818c511a-4a32-5484-ba70-875d765a9175-attr-2-name" class="er entityLabel">login</text><rect height="22" width="24.56666660308838" y="46" x="75.73333358764648" class="er attributeBoxEven"></rect><text transform="translate(80.73333358764648,57)" style="dominant-baseline: middle; font-size: 10.2px;" y="0" x="0" id="text-entity-User-818c511a-4a32-5484-ba70-875d765a9175-attr-2-key" class="er entityLabel">UK</text></g><g transform="translate(86.4333267211914,20 )" id="entity-Film-0bed8746-966b-59d7-af6d-e7cfd3518a45"><rect height="200" width="132.96666717529297" y="0" x="0" class="er entityBox"></rect><text transform="translate(66.48333358764648,12)" style="dominant-baseline: middle; text-anchor: middle; font-size: 12px;" y="0" x="0" id="text-entity-Film-0bed8746-966b-59d7-af6d-e7cfd3518a45" class="er entityLabel">Film</text><rect height="22" width="49.66666793823242" y="24" x="0" class="er attributeBoxOdd"></rect><text transform="translate(5,35)" style="dominant-baseline: middle; font-size: 10.2px;" y="0" x="0" id="text-entity-Film-0bed8746-966b-59d7-af6d-e7cfd3518a45-attr-1-type" class="er entityLabel">integer</text><rect height="22" width="59.29999923706055" y="24" x="49.66666793823242" class="er attributeBoxOdd"></rect><text transform="translate(54.66666793823242,35)" style="dominant-baseline: middle; font-size: 10.2px;" y="0" x="0" id="text-entity-Film-0bed8746-966b-59d7-af6d-e7cfd3518a45-attr-1-name" class="er entityLabel">id</text><rect height="22" width="24" y="24" x="108.96666717529297" class="er attributeBoxOdd"></rect><text transform="translate(113.96666717529297,35)" style="dominant-baseline: middle; font-size: 10.2px;" y="0" x="0" id="text-entity-Film-0bed8746-966b-59d7-af6d-e7cfd3518a45-attr-1-key" class="er entityLabel">PK</text><rect height="22" width="49.66666793823242" y="46" x="0" class="er attributeBoxEven"></rect><text transform="translate(5,57)" style="dominant-baseline: middle; font-size: 10.2px;" y="0" x="0" id="text-entity-Film-0bed8746-966b-59d7-af6d-e7cfd3518a45-attr-2-type" class="er entityLabel">varchar</text><rect height="22" width="59.29999923706055" y="46" x="49.66666793823242" class="er attributeBoxEven"></rect><text transform="translate(54.66666793823242,57)" style="dominant-baseline: middle; font-size: 10.2px;" y="0" x="0" id="text-entity-Film-0bed8746-966b-59d7-af6d-e7cfd3518a45-attr-2-name" class="er entityLabel">title</text><rect height="22" width="24" y="46" x="108.96666717529297" class="er attributeBoxEven"></rect><text transform="translate(113.96666717529297,57)" style="dominant-baseline: middle; font-size: 10.2px;" y="0" x="0" id="text-entity-Film-0bed8746-966b-59d7-af6d-e7cfd3518a45-attr-2-key" class="er entityLabel"></text><rect height="22" width="49.66666793823242" y="68" x="0" class="er attributeBoxOdd"></rect><text transform="translate(5,79)" style="dominant-baseline: middle; font-size: 10.2px;" y="0" x="0" id="text-entity-Film-0bed8746-966b-59d7-af6d-e7cfd3518a45-attr-3-type" class="er entityLabel">varchar</text><rect height="22" width="59.29999923706055" y="68" x="49.66666793823242" class="er attributeBoxOdd"></rect><text transform="translate(54.66666793823242,79)" style="dominant-baseline: middle; font-size: 10.2px;" y="0" x="0" id="text-entity-Film-0bed8746-966b-59d7-af6d-e7cfd3518a45-attr-3-name" class="er entityLabel">description</text><rect height="22" width="24" y="68" x="108.96666717529297" class="er attributeBoxOdd"></rect><text transform="translate(113.96666717529297,79)" style="dominant-baseline: middle; font-size: 10.2px;" y="0" x="0" id="text-entity-Film-0bed8746-966b-59d7-af6d-e7cfd3518a45-attr-3-key" class="er entityLabel"></text><rect height="22" width="49.66666793823242" y="90" x="0" class="er attributeBoxEven"></rect><text transform="translate(5,101)" style="dominant-baseline: middle; font-size: 10.2px;" y="0" x="0" id="text-entity-Film-0bed8746-966b-59d7-af6d-e7cfd3518a45-attr-4-type" class="er entityLabel">varchar</text><rect height="22" width="59.29999923706055" y="90" x="49.66666793823242" class="er attributeBoxEven"></rect><text transform="translate(54.66666793823242,101)" style="dominant-baseline: middle; font-size: 10.2px;" y="0" x="0" id="text-entity-Film-0bed8746-966b-59d7-af6d-e7cfd3518a45-attr-4-name" class="er entityLabel">image_url</text><rect height="22" width="24" y="90" x="108.96666717529297" class="er attributeBoxEven"></rect><text transform="translate(113.96666717529297,101)" style="dominant-baseline: middle; font-size: 10.2px;" y="0" x="0" id="text-entity-Film-0bed8746-966b-59d7-af6d-e7cfd3518a45-attr-4-key" class="er entityLabel"></text><rect height="22" width="49.66666793823242" y="112" x="0" class="er attributeBoxOdd"></rect><text transform="translate(5,123)" style="dominant-baseline: middle; font-size: 10.2px;" y="0" x="0" id="text-entity-Film-0bed8746-966b-59d7-af6d-e7cfd3518a45-attr-5-type" class="er entityLabel">varchar[]</text><rect height="22" width="59.29999923706055" y="112" x="49.66666793823242" class="er attributeBoxOdd"></rect><text transform="translate(54.66666793823242,123)" style="dominant-baseline: middle; font-size: 10.2px;" y="0" x="0" id="text-entity-Film-0bed8746-966b-59d7-af6d-e7cfd3518a45-attr-5-name" class="er entityLabel">genres</text><rect height="22" width="24" y="112" x="108.96666717529297" class="er attributeBoxOdd"></rect><text transform="translate(113.96666717529297,123)" style="dominant-baseline: middle; font-size: 10.2px;" y="0" x="0" id="text-entity-Film-0bed8746-966b-59d7-af6d-e7cfd3518a45-attr-5-key" class="er entityLabel"></text><rect height="22" width="49.66666793823242" y="134" x="0" class="er attributeBoxEven"></rect><text transform="translate(5,145)" style="dominant-baseline: middle; font-size: 10.2px;" y="0" x="0" id="text-entity-Film-0bed8746-966b-59d7-af6d-e7cfd3518a45-attr-6-type" class="er entityLabel">integer</text><rect height="22" width="59.29999923706055" y="134" x="49.66666793823242" class="er attributeBoxEven"></rect><text transform="translate(54.66666793823242,145)" style="dominant-baseline: middle; font-size: 10.2px;" y="0" x="0" id="text-entity-Film-0bed8746-966b-59d7-af6d-e7cfd3518a45-attr-6-name" class="er entityLabel">year</text><rect height="22" width="24" y="134" x="108.96666717529297" class="er attributeBoxEven"></rect><text transform="translate(113.96666717529297,145)" style="dominant-baseline: middle; font-size: 10.2px;" y="0" x="0" id="text-entity-Film-0bed8746-966b-59d7-af6d-e7cfd3518a45-attr-6-key" class="er entityLabel"></text><rect height="22" width="49.66666793823242" y="156" x="0" class="er attributeBoxOdd"></rect><text transform="translate(5,167)" style="dominant-baseline: middle; font-size: 10.2px;" y="0" x="0" id="text-entity-Film-0bed8746-966b-59d7-af6d-e7cfd3518a45-attr-7-type" class="er entityLabel">double</text><rect height="22" width="59.29999923706055" y="156" x="49.66666793823242" class="er attributeBoxOdd"></rect><text transform="translate(54.66666793823242,167)" style="dominant-baseline: middle; font-size: 10.2px;" y="0" x="0" id="text-entity-Film-0bed8746-966b-59d7-af6d-e7cfd3518a45-attr-7-name" class="er entityLabel">rating</text><rect height="22" width="24" y="156" x="108.96666717529297" class="er attributeBoxOdd"></rect><text transform="translate(113.96666717529297,167)" style="dominant-baseline: middle; font-size: 10.2px;" y="0" x="0" id="text-entity-Film-0bed8746-966b-59d7-af6d-e7cfd3518a45-attr-7-key" class="er entityLabel"></text><rect height="22" width="49.66666793823242" y="178" x="0" class="er attributeBoxEven"></rect><text transform="translate(5,189)" style="dominant-baseline: middle; font-size: 10.2px;" y="0" x="0" id="text-entity-Film-0bed8746-966b-59d7-af6d-e7cfd3518a45-attr-8-type" class="er entityLabel">varchar</text><rect height="22" width="59.29999923706055" y="178" x="49.66666793823242" class="er attributeBoxEven"></rect><text transform="translate(54.66666793823242,189)" style="dominant-baseline: middle; font-size: 10.2px;" y="0" x="0" id="text-entity-Film-0bed8746-966b-59d7-af6d-e7cfd3518a45-attr-8-name" class="er entityLabel">film_url</text><rect height="22" width="24" y="178" x="108.96666717529297" class="er attributeBoxEven"></rect><text transform="translate(113.96666717529297,189)" style="dominant-baseline: middle; font-size: 10.2px;" y="0" x="0" id="text-entity-Film-0bed8746-966b-59d7-af6d-e7cfd3518a45-attr-8-key" class="er entityLabel"></text></g><g transform="translate(336.63333892822266,320 )" id="entity-FilmsWatched-107523a7-efd0-5e04-9a67-5737d14c2774"><rect height="68" width="165.83333587646484" y="0" x="0" class="er entityBox"></rect><text transform="translate(82.91666793823242,12)" style="dominant-baseline: middle; text-anchor: middle; font-size: 12px;" y="0" x="0" id="text-entity-FilmsWatched-107523a7-efd0-5e04-9a67-5737d14c2774" class="er entityLabel">FilmsWatched</text><rect height="22" width="44.20000076293945" y="24" x="0" class="er attributeBoxOdd"></rect><text transform="translate(5,35)" style="dominant-baseline: middle; font-size: 10.2px;" y="0" x="0" id="text-entity-FilmsWatched-107523a7-efd0-5e04-9a67-5737d14c2774-attr-1-type" class="er entityLabel">varchar</text><rect height="22" width="43.43333435058594" y="24" x="44.20000076293945" class="er attributeBoxOdd"></rect><text transform="translate(49.20000076293945,35)" style="dominant-baseline: middle; font-size: 10.2px;" y="0" x="0" id="text-entity-FilmsWatched-107523a7-efd0-5e04-9a67-5737d14c2774-attr-1-name" class="er entityLabel">user_id</text><rect height="22" width="39.86666679382324" y="24" x="87.63333511352539" class="er attributeBoxOdd"></rect><text transform="translate(92.63333511352539,35)" style="dominant-baseline: middle; font-size: 10.2px;" y="0" x="0" id="text-entity-FilmsWatched-107523a7-efd0-5e04-9a67-5737d14c2774-attr-1-key" class="er entityLabel">PK,FK</text><rect height="22" width="38.33333396911621" y="24" x="127.50000190734863" class="er attributeBoxOdd"></rect><text transform="translate(132.50000190734863,35)" style="dominant-baseline: middle; font-size: 10.2px;" y="0" x="0" id="text-entity-FilmsWatched-107523a7-efd0-5e04-9a67-5737d14c2774-attr-1-comment" class="er entityLabel">(login)</text><rect height="22" width="44.20000076293945" y="46" x="0" class="er attributeBoxEven"></rect><text transform="translate(5,57)" style="dominant-baseline: middle; font-size: 10.2px;" y="0" x="0" id="text-entity-FilmsWatched-107523a7-efd0-5e04-9a67-5737d14c2774-attr-2-type" class="er entityLabel">Integer</text><rect height="22" width="43.43333435058594" y="46" x="44.20000076293945" class="er attributeBoxEven"></rect><text transform="translate(49.20000076293945,57)" style="dominant-baseline: middle; font-size: 10.2px;" y="0" x="0" id="text-entity-FilmsWatched-107523a7-efd0-5e04-9a67-5737d14c2774-attr-2-name" class="er entityLabel">film_id</text><rect height="22" width="39.86666679382324" y="46" x="87.63333511352539" class="er attributeBoxEven"></rect><text transform="translate(92.63333511352539,57)" style="dominant-baseline: middle; font-size: 10.2px;" y="0" x="0" id="text-entity-FilmsWatched-107523a7-efd0-5e04-9a67-5737d14c2774-attr-2-key" class="er entityLabel">PK,FK</text><rect height="22" width="38.33333396911621" y="46" x="127.50000190734863" class="er attributeBoxEven"></rect><text transform="translate(132.50000190734863,57)" style="dominant-baseline: middle; font-size: 10.2px;" y="0" x="0" id="text-entity-FilmsWatched-107523a7-efd0-5e04-9a67-5737d14c2774-attr-2-comment" class="er entityLabel"></text></g><g transform="translate(20,320 )" id="entity-FilmsWatchlist-5f9f6ebd-3cb7-544d-9bdc-91aff92d68e4"><rect height="68" width="165.83333587646484" y="0" x="0" class="er entityBox"></rect><text transform="translate(82.91666793823242,12)" style="dominant-baseline: middle; text-anchor: middle; font-size: 12px;" y="0" x="0" id="text-entity-FilmsWatchlist-5f9f6ebd-3cb7-544d-9bdc-91aff92d68e4" class="er entityLabel">FilmsWatchlist</text><rect height="22" width="44.20000076293945" y="24" x="0" class="er attributeBoxOdd"></rect><text transform="translate(5,35)" style="dominant-baseline: middle; font-size: 10.2px;" y="0" x="0" id="text-entity-FilmsWatchlist-5f9f6ebd-3cb7-544d-9bdc-91aff92d68e4-attr-1-type" class="er entityLabel">varchar</text><rect height="22" width="43.43333435058594" y="24" x="44.20000076293945" class="er attributeBoxOdd"></rect><text transform="translate(49.20000076293945,35)" style="dominant-baseline: middle; font-size: 10.2px;" y="0" x="0" id="text-entity-FilmsWatchlist-5f9f6ebd-3cb7-544d-9bdc-91aff92d68e4-attr-1-name" class="er entityLabel">user_id</text><rect height="22" width="39.86666679382324" y="24" x="87.63333511352539" class="er attributeBoxOdd"></rect><text transform="translate(92.63333511352539,35)" style="dominant-baseline: middle; font-size: 10.2px;" y="0" x="0" id="text-entity-FilmsWatchlist-5f9f6ebd-3cb7-544d-9bdc-91aff92d68e4-attr-1-key" class="er entityLabel">PK,FK</text><rect height="22" width="38.33333396911621" y="24" x="127.50000190734863" class="er attributeBoxOdd"></rect><text transform="translate(132.50000190734863,35)" style="dominant-baseline: middle; font-size: 10.2px;" y="0" x="0" id="text-entity-FilmsWatchlist-5f9f6ebd-3cb7-544d-9bdc-91aff92d68e4-attr-1-comment" class="er entityLabel">(login)</text><rect height="22" width="44.20000076293945" y="46" x="0" class="er attributeBoxEven"></rect><text transform="translate(5,57)" style="dominant-baseline: middle; font-size: 10.2px;" y="0" x="0" id="text-entity-FilmsWatchlist-5f9f6ebd-3cb7-544d-9bdc-91aff92d68e4-attr-2-type" class="er entityLabel">Integer</text><rect height="22" width="43.43333435058594" y="46" x="44.20000076293945" class="er attributeBoxEven"></rect><text transform="translate(49.20000076293945,57)" style="dominant-baseline: middle; font-size: 10.2px;" y="0" x="0" id="text-entity-FilmsWatchlist-5f9f6ebd-3cb7-544d-9bdc-91aff92d68e4-attr-2-name" class="er entityLabel">film_id</text><rect height="22" width="39.86666679382324" y="46" x="87.63333511352539" class="er attributeBoxEven"></rect><text transform="translate(92.63333511352539,57)" style="dominant-baseline: middle; font-size: 10.2px;" y="0" x="0" id="text-entity-FilmsWatchlist-5f9f6ebd-3cb7-544d-9bdc-91aff92d68e4-attr-2-key" class="er entityLabel">PK,FK</text><rect height="22" width="38.33333396911621" y="46" x="127.50000190734863" class="er attributeBoxEven"></rect><text transform="translate(132.50000190734863,57)" style="dominant-baseline: middle; font-size: 10.2px;" y="0" x="0" id="text-entity-FilmsWatchlist-5f9f6ebd-3cb7-544d-9bdc-91aff92d68e4-attr-2-comment" class="er entityLabel"></text></g><rect height="14" width="92.33333587646484" y="262.1813659667969" x="17.332763671875" class="er relationshipLabelBox"></rect><text style="text-anchor: middle; dominant-baseline: middle; font-size: 12px;" y="269.1813659667969" x="63.49943161010742" id="rel326" class="er relationshipLabel">watchlisted a film</text><rect height="14" width="77.66666412353516" y="246.8921661376953" x="256.6366386413574" class="er relationshipLabelBox"></rect><text style="text-anchor: middle; dominant-baseline: middle; font-size: 12px;" y="253.8921661376953" x="295.469970703125" id="rel327" class="er relationshipLabel">watched a film</text><rect height="14" width="34.66666793823242" y="232.25933837890625" x="224.84424781799316" class="er relationshipLabelBox"></rect><text style="text-anchor: middle; dominant-baseline: middle; font-size: 12px;" y="239.25933837890625" x="242.17758178710938" id="rel328" class="er relationshipLabel">A user</text><rect height="14" width="34.66666793823242" y="225.8858184814453" x="423.7114963531494" class="er relationshipLabelBox"></rect><text style="text-anchor: middle; dominant-baseline: middle; font-size: 12px;" y="232.8858184814453" x="441.0448303222656" id="rel329" class="er relationshipLabel">A user</text></svg>